# xmcd
#
# Track frame offsets: 
#        150
#        14487
#        28187
#        42252
#        59345
#        73252
#        87627
#        99672
#        117775
#        134990
#        148932
#
# Disc length: 2231 seconds
#
# Revision: 0
# Processed by: cddbd v1.5PL3 Copyright (c) Steve Scherf et al.
# Submitted via: ExactAudioCopy v0.95a3
#
DISCID=af08b50b
DTITLE=Steven Craig Harding - Steven Craig Harding
DYEAR=1996
DGENRE=Country
TTITLE0=Somethin' I Know Nothin' About
TTITLE1=If It Wasn't For You
TTITLE2=Tonight My Heart Rides Again
TTITLE3=Somebody's Baby
TTITLE4=Halfway To Memphis
TTITLE5=Somewhere
TTITLE6=Armed And Dangerous
TTITLE7=I'm The Only Thing I'll Hold Against You
TTITLE8=A Woman Like You
TTITLE9=You Against Me
TTITLE10=Love Has A Life Of Its Own
EXTD=
EXTT0=
EXTT1=
EXTT2=
EXTT3=
EXTT4=
EXTT5=
EXTT6=
EXTT7=
EXTT8=
EXTT9=
EXTT10=
PLAYORDER=
